<svg width="48" height="48" viewBox="0 0 48 48" fill="none" xmlns="http://www.w3.org/2000/svg">
<rect width="48" height="48" rx="8" fill="url(#paint0_linear_3_2)"/>
<g clip-path="url(#clip0_3_2)">
<path d="M36.65 16C32.068 13.741 27.4855 11.48 22.905 9.22101C22.593 9.06751 22.264 8.85451 21.9 8.96401C21.6755 9.03251 21.455 9.19601 21.254 9.31001C20.199 9.91201 19.1425 10.5125 18.087 11.1155C15.289 12.713 12.4905 14.309 9.68997 15.9065C9.32897 16.1135 8.96647 16.318 8.60447 16.525C8.49803 16.5581 8.40054 16.615 8.31947 16.6915C7.92147 16.955 7.92047 17.4035 8.12747 17.7305C8.18597 17.8465 8.27847 17.953 8.40647 18.041L21.4515 26.8485C21.756 27.0535 22.061 27.26 22.3645 27.466C22.582 27.6115 22.9635 27.6015 23.174 27.4465C27.3795 24.3125 31.5875 21.1775 35.794 18.042C36.0905 17.8225 36.3855 17.603 36.6795 17.3835C37.133 17.047 37.2295 16.288 36.649 16" fill="#D07929"/>
<path d="M23.4675 26.645C23.367 26.3115 23.0235 26.13 22.7525 25.9445C18.3185 22.9195 13.8845 19.8995 9.45051 16.8695C9.40256 16.7974 9.33982 16.7363 9.26647 16.6902C9.19311 16.6442 9.1108 16.6143 9.02501 16.6025C8.60451 16.427 8.23001 16.7115 8.09451 17.096C8.01644 17.2586 7.99395 17.4424 8.03051 17.619C8.48101 20.0485 8.93451 22.48 9.38601 24.91L10.1915 29.24C10.3025 29.8295 10.3065 30.352 10.804 30.74L22.434 39.815C22.962 40.2265 23.8045 39.969 23.787 39.218L23.6115 31.658C23.5795 30.2695 23.546 28.882 23.516 27.493C23.5095 27.224 23.5445 26.9 23.4675 26.64" fill="#F6921E"/>
<path d="M8.47301 19.9195C8.63301 19.832 8.82351 19.8045 9.02501 19.8885C9.19251 19.916 9.34701 20.001 9.45051 20.156L22.7525 29.231C23.0235 29.4165 23.367 29.5975 23.4675 29.931C23.5445 30.1925 23.5095 30.5145 23.5165 30.7835C23.547 32.1725 23.58 33.5615 23.612 34.9505L23.716 39.4755C23.76 39.376 23.79 39.2665 23.7875 39.1355L23.612 31.5755C23.58 30.187 23.5465 28.7975 23.5165 27.4085C23.5095 27.141 23.545 26.817 23.4675 26.556C23.367 26.2235 23.0235 26.041 22.7525 25.856C18.3185 22.831 13.8845 19.811 9.45051 16.781C9.40226 16.7091 9.33945 16.6482 9.26615 16.6021C9.19286 16.556 9.1107 16.5258 9.02501 16.5135C8.60451 16.339 8.23001 16.624 8.09451 17.008C8.01644 17.1704 7.99395 17.354 8.03051 17.5305C8.17651 18.327 8.32451 19.123 8.47301 19.9195" fill="#9A5524"/>
<path d="M35.8749 16.07C31.7519 19.122 27.6294 22.176 23.5054 25.2285C23.2294 25.4315 22.9534 25.637 22.6794 25.8405C22.6509 25.861 22.6294 25.8805 22.6064 25.9C22.4249 26.0315 22.3019 26.245 22.3079 26.5425C22.4074 30.777 22.505 35.014 22.6035 39.249C22.621 40 23.4529 40.2185 23.9464 39.7835C27.5719 36.596 31.1994 33.4085 34.8279 30.2235C35.2354 29.8645 35.2085 28.895 35.2835 28.403C35.5145 26.9055 35.7424 25.4085 35.9719 23.911C36.3289 21.5885 36.685 19.27 37.04 16.949C37.137 16.32 36.4829 15.622 35.8749 16.0725" fill="#D07929"/>
<path d="M22.605 28.9895C22.628 28.972 22.6505 28.9525 22.678 28.933C22.951 28.7375 23.228 28.539 23.504 28.3455C27.627 25.4055 31.7505 22.4665 35.8745 19.53C36.1375 19.341 36.409 19.369 36.6245 19.5025C36.762 18.6395 36.9005 17.774 37.037 16.91C37.1355 16.3055 36.4815 15.6335 35.8745 16.0655C31.7505 19.0035 27.627 21.943 23.504 24.881C23.228 25.0775 22.951 25.274 22.678 25.4695C22.6505 25.489 22.628 25.5085 22.605 25.527C22.4245 25.6535 22.3015 25.8595 22.3075 26.145C22.333 27.1815 22.3575 28.219 22.3825 29.257C22.4355 29.147 22.5105 29.0555 22.605 28.9895Z" fill="#9A5524"/>
<path d="M26.7535 11.122L12.788 19.06L17.288 22.13L30.328 12.886L26.7535 11.122Z" fill="#BE202E"/>
<path d="M17.7135 11.3315L31.8085 18.964L26.7185 22.59L14.3655 13.2435L17.7135 11.3315Z" fill="#BE202E"/>
<path d="M17.2906 22.13L17.9031 36.285L13.8491 33.12L12.7881 19.06L17.2906 22.13ZM26.7166 22.59V37.35L31.3376 33.2905L31.8066 18.964" fill="#CC2F42"/>
<path d="M21.03 11.015C19.2645 12.479 18.309 15.131 18.0905 17.103C17.8565 19.207 17.8135 21.4105 16.495 23.197C16.306 23.4535 16.4735 23.6115 16.739 23.4505C17.5045 22.9815 18.163 22.4195 18.7725 21.781C19.1615 22.571 19.033 23.5065 18.945 24.3695C18.904 24.7615 19.488 24.277 19.574 24.1875C21.364 22.228 20.7765 19.813 21.2565 17.3795C22.528 10.938 22.2785 9.981 21.03 11.015Z" fill="#CC2F42"/>
<path d="M23.55 17.327C24.6775 19.5355 24.7675 22.0195 27.027 23.4155C27.1305 23.478 27.827 23.785 27.681 23.4195C27.3635 22.613 26.9815 21.7485 27.1415 20.8835C27.9005 21.333 28.6875 21.694 29.5545 21.935C29.855 22.017 29.968 21.822 29.716 21.625C27.9625 20.265 27.3185 18.1585 26.5205 16.198C25.7695 14.3595 24.129 12.0665 22.03 11.143C20.5465 10.4885 20.57 11.4765 23.55 17.3265" fill="#CC2F42"/>
<path d="M15.06 9.74249C16.959 9.47749 21.283 10.2545 21.515 11.9195C21.746 13.5835 17.798 15.509 15.9005 15.774C14.0025 16.0375 12.86 14.818 12.6285 13.154C12.3945 11.4875 13.163 10.006 15.06 9.74249V9.74249ZM27.135 8.06299C25.235 8.32899 21.2875 10.2545 21.52 11.9195C21.751 13.5835 26.077 14.359 27.971 14.0965C29.873 13.8315 30.6375 12.3485 30.4055 10.6835C30.175 9.01499 29.0335 7.79999 27.135 8.06299Z" fill="#CC2F42"/>
<path d="M24.9675 11.0875C25.01 11.3939 24.9918 11.7057 24.9138 12.005C24.8359 12.3044 24.6996 12.5854 24.5129 12.8321C24.3263 13.0788 24.0928 13.2862 23.8259 13.4426C23.559 13.599 23.2639 13.7012 22.9575 13.7435L20.63 14.068C20.0116 14.1545 19.3841 13.9919 18.8856 13.6159C18.387 13.2399 18.0582 12.6814 17.9715 12.063C17.8861 11.4441 18.0498 10.8166 18.4267 10.3182C18.8035 9.8199 19.3627 9.49145 19.9815 9.40499L22.3125 9.08049C22.9313 8.99542 23.5586 9.15926 24.0568 9.53606C24.555 9.91287 24.8834 10.4719 24.97 11.0905" fill="#EF556C"/>
</g>
<defs>
<linearGradient id="paint0_linear_3_2" x1="36.5" y1="10" x2="8" y2="41.5" gradientUnits="userSpaceOnUse">
<stop stop-color="#FAB06B"/>
<stop offset="0.692708" stop-color="#D07929"/>
</linearGradient>
<clipPath id="clip0_3_2">
<rect width="32" height="32" fill="white" transform="translate(8 8)"/>
</clipPath>
</defs>
</svg>
